<?xml version="1.0" encoding="UTF-8"?>
<svg xmlns="http://www.w3.org/2000/svg" width="36" height="36" viewBox="0 0 36 36">
  <title>Shaula tray icon template</title>
  <path
    fill="#000000"
    d="M17.6 24.7c-3.6-.2-6.4-2.3-6.4-5.1 0-3 3.1-5.4 6.9-5.4s6.9 2.4 6.9 5.4c0 2.9-2.9 5-6.6 5.1l.5 2.5c.2 1.2-.7 2.3-1.9 2.3s-2.1-1.1-1.9-2.3l.5-2.5Zm-4.3-10.3c-1.1.8-1.9 1.8-2.3 2.9l-4.2-1.5c-.8-.3-1.1-1.2-.7-1.9.4-.7 1.4-.9 2-.4l3.2 1.9c.5-.4 1.1-.8 2-1Zm9.4 0c.8.2 1.5.6 2.1 1l3.1-1.9c.7-.5 1.6-.3 2 .4.4.7.1 1.6-.7 1.9l-4.2 1.5c-.4-1.1-1.2-2.1-2.3-2.9Zm-4.6-1.7c-.6 0-1.2.1-1.8.2l-.9-3.5c-.2-.8.3-1.6 1.1-1.8.8-.2 1.6.3 1.8 1.1l.7 3.9c-.3 0-.6.1-.9.1Zm2.9.2c-.5-.1-1.1-.2-1.7-.2l.8-4c.2-.8 1-1.3 1.8-1.1.8.2 1.3 1 1.1 1.8l-1 3.5Zm-12.2 8.5c.6 1.9 2.2 3.4 4.2 4.3l-3.1 2.4c-.7.5-1.6.4-2.1-.3-.5-.7-.3-1.6.4-2.1l2.8-1.8c-.8-.7-1.4-1.5-1.9-2.5Zm18.4 0c-.4 1-1.1 1.8-1.9 2.5l2.8 1.8c.7.5.9 1.4.4 2.1-.5.7-1.5.8-2.1.3l-3.1-2.4c2-.9 3.5-2.4 4.1-4.3Zm-3.7-13.7c1.6-2.1 4-3.6 6.6-3.9 1-.1 1.8.7 1.8 1.7 0 .8-.6 1.5-1.4 1.6-2.1.3-3.9 1.6-4.9 3.5l-1.4 2.6c-.7-.5-1.5-.9-2.4-1.1l1.7-4.4Zm-1.7 12.1c0-1.3-1.7-2.4-3.7-2.4s-3.7 1.1-3.7 2.4 1.7 2.4 3.7 2.4 3.7-1.1 3.7-2.4Z"
  />
</svg>
